<svg xmlns="http://www.w3.org/2000/svg" viewBox="0 0 1200 630" role="img" aria-label="Maybe Later — Save it now, deal with it later">
  <defs>
    <linearGradient id="bg" x1="0" y1="0" x2="1" y2="1">
      <stop offset="0" stop-color="#6c5ce7"/>
      <stop offset="1" stop-color="#4a3cc0"/>
    </linearGradient>
    <linearGradient id="mark" x1="0" y1="0" x2="1" y2="1">
      <stop offset="0" stop-color="#ffffff"/>
      <stop offset="1" stop-color="#e9e6ff"/>
    </linearGradient>
  </defs>
  <rect width="1200" height="630" fill="url(#bg)"/>
  <g transform="translate(96 210)">
    <path fill="url(#mark)" d="M0 14A14 14 0 0 1 14 0h62a14 14 0 0 1 14 14v150a6 6 0 0 1-9.3 5L45 148 9.3 169A6 6 0 0 1 0 164z"/>
    <circle cx="45" cy="66" r="34" fill="#4a3cc0"/>
    <path fill="none" stroke="#fff" stroke-width="7" stroke-linecap="round" d="M45 46v20l13 9"/>
  </g>
  <text x="210" y="290" font-family="-apple-system, Segoe UI, Roboto, Helvetica, Arial, sans-serif" font-size="40" font-weight="700" fill="#d9d4ff" letter-spacing="2">MAYBE LATER</text>
  <text x="206" y="380" font-family="-apple-system, Segoe UI, Roboto, Helvetica, Arial, sans-serif" font-size="76" font-weight="800" fill="#ffffff">Save it now.</text>
  <text x="206" y="466" font-family="-apple-system, Segoe UI, Roboto, Helvetica, Arial, sans-serif" font-size="76" font-weight="800" fill="#ffd9c2">Deal with it later.</text>
</svg>
