<svg xmlns="http://www.w3.org/2000/svg" viewBox="0 0 1200 630" role="img" aria-label="MaybeLater: Save it now, find it later">
  <defs>
    <linearGradient id="bg" x1="0" y1="0" x2="1" y2="1">
      <stop offset="0" stop-color="#FFEEDD"/>
      <stop offset="1" stop-color="#FCE0CB"/>
    </linearGradient>
  </defs>
  <rect width="1200" height="630" fill="url(#bg)"/>

  <!-- floating bento cards -->
  <g opacity="0.95">
    <rect x="720" y="70"  width="240" height="150" rx="22" fill="#E6E8FB"/>
    <rect x="752" y="104" width="44" height="44" rx="12" fill="#5B66E0"/>
    <rect x="812" y="112" width="118" height="12" rx="6" fill="#C3C7EF"/>
    <rect x="812" y="140" width="86"  height="12" rx="6" fill="#C3C7EF"/>
    <rect x="752" y="182" width="150" height="12" rx="6" fill="#C3C7EF"/>

    <rect x="978" y="120" width="180" height="120" rx="20" fill="#FFF6BF"/>
    <rect x="1004" y="150" width="36" height="36" rx="10" fill="#D9A406"/>
    <rect x="1054" y="158" width="80" height="10" rx="5" fill="#E7D585"/>
    <rect x="1004" y="204" width="120" height="10" rx="5" fill="#E7D585"/>

    <rect x="770" y="330" width="200" height="150" rx="22" fill="#FFE3EB"/>
    <rect x="800" y="364" width="42" height="42" rx="12" fill="#E0518A"/>
    <rect x="858" y="372" width="86" height="12" rx="6" fill="#F2BFD1"/>
    <rect x="800" y="430" width="140" height="12" rx="6" fill="#F2BFD1"/>

    <rect x="988" y="300" width="176" height="220" rx="22" fill="#FFFFFF"/>
    <rect x="1016" y="332" width="44" height="44" rx="12" fill="#FF5436"/>
    <rect x="1076" y="342" width="70" height="12" rx="6" fill="#E4E1DA"/>
    <rect x="1016" y="404" width="120" height="12" rx="6" fill="#E4E1DA"/>
    <rect x="1016" y="436" width="120" height="12" rx="6" fill="#E4E1DA"/>
  </g>

  <!-- logo mark -->
  <g transform="translate(96 210)">
    <rect width="96" height="96" rx="24" fill="#FF5436"/>
    <path fill="#FAF9F6" d="M27 27.6A6.6 6.6 0 0 1 33.6 21h28.8A6.6 6.6 0 0 1 69 27.6V75l-21-12-21 12z"/>
    <path fill="none" stroke="#1A1814" stroke-width="7.2" stroke-linecap="round" stroke-linejoin="round" d="M37.5 52.8V34.2l10.5 12 10.5-12v18.6"/>
  </g>

  <!-- wordmark -->
  <text x="216" y="278" font-family="'Space Grotesk','Segoe UI',Roboto,Helvetica,Arial,sans-serif" font-size="72" font-weight="700" letter-spacing="-2" fill="#1A1814">Maybe<tspan fill="#FF5436">Later</tspan></text>

  <!-- tagline -->
  <text x="98" y="400" font-family="'Space Grotesk','Segoe UI',Roboto,Helvetica,Arial,sans-serif" font-size="58" font-weight="700" letter-spacing="-1.5" fill="#1A1814">Save it now,</text>
  <text x="98" y="470" font-family="'Space Grotesk','Segoe UI',Roboto,Helvetica,Arial,sans-serif" font-size="58" font-weight="700" letter-spacing="-1.5" fill="#1A1814">find it later.</text>

  <!-- subtitle -->
  <text x="100" y="536" font-family="'Inter','Segoe UI',Roboto,Helvetica,Arial,sans-serif" font-size="27" font-weight="500" fill="#8B867A">On-device AI tags every link, sorts it into</text>
  <text x="100" y="572" font-family="'Inter','Segoe UI',Roboto,Helvetica,Arial,sans-serif" font-size="27" font-weight="500" fill="#8B867A">collections, and backs it up with encryption.</text>
</svg>
